<?xml version="1.0" encoding="UTF-8"?>
<!DOCTYPE svg PUBLIC "-//W3C//DTD SVG 1.1//EN" "http://www.w3.org/Graphics/SVG/1.1/DTD/svg11.dtd">
<svg version="1.1" xmlns="http://www.w3.org/2000/svg" xmlns:xlink="http://www.w3.org/1999/xlink" x="0" y="0" width="725.988" height="401.6" viewBox="0, 0, 725.988, 401.6">
  <g id="Layer_1" transform="translate(-17.011, -311.2)">
    <g>
      <path d="M313.126,566.112 Q323.234,566.112 330.961,562.926 Q338.688,559.74 343.082,554.027 Q347.477,548.314 347.477,540.623 L347.477,540.55 Q347.477,531.908 342.094,526.781 Q336.71,521.654 324.332,519.09 L311.002,516.234 Q305.07,514.989 302.726,512.938 Q300.382,510.887 300.382,507.884 L300.382,507.811 Q300.382,505.247 301.847,503.38 Q303.312,501.512 306.022,500.487 Q308.732,499.461 312.394,499.461 Q318.326,499.461 321.732,502.281 Q325.138,505.101 325.651,509.349 L325.724,509.935 L345.426,509.935 L345.426,509.202 Q345.206,502.318 341.288,496.678 Q337.369,491.038 330.082,487.706 Q322.794,484.373 312.394,484.373 Q302.433,484.373 294.999,487.413 Q287.565,490.452 283.536,495.946 Q279.508,501.439 279.508,508.983 L279.508,509.056 Q279.508,517.845 285.258,523.521 Q291.007,529.198 302.433,531.615 L315.763,534.398 Q321.549,535.716 323.82,537.62 Q326.09,539.525 326.09,542.674 L326.09,542.747 Q326.09,545.311 324.515,547.142 Q322.941,548.973 320.084,549.962 Q317.228,550.951 313.126,550.951 Q306.754,550.951 303.165,548.387 Q299.576,545.824 298.551,541.209 L298.405,540.55 L277.531,540.55 L277.604,541.209 Q278.483,548.607 282.767,554.21 Q287.052,559.813 294.669,562.962 Q302.286,566.112 313.126,566.112 z" fill="#FFFFFF"/>
      <path d="M381.388,565.745 Q386.588,565.745 390.983,564.171 Q395.377,562.596 398.856,559.703 Q402.335,556.81 404.532,552.782 L404.972,552.782 L404.972,564.5 L426.359,564.5 L426.359,510.667 Q426.359,502.757 422.22,496.825 Q418.082,490.892 410.612,487.633 Q403.141,484.373 392.96,484.373 Q382.633,484.373 375.126,487.559 Q367.618,490.745 363.407,496.385 Q359.196,502.025 358.61,509.276 L358.536,510.155 L378.092,510.155 L378.239,509.495 Q379.044,505.687 382.56,503.197 Q386.075,500.706 392.081,500.706 Q398.38,500.706 401.676,503.746 Q404.972,506.785 404.972,511.986 L404.972,535.789 Q404.972,539.891 402.811,543.15 Q400.651,546.41 396.879,548.277 Q393.107,550.145 388.346,550.145 Q382.78,550.145 379.484,547.691 Q376.188,545.238 376.188,540.916 L376.188,540.77 Q376.188,536.595 379.41,534.068 Q382.633,531.541 388.785,531.175 L416.178,529.417 L416.178,516.087 L385.563,517.992 Q370.988,518.944 363.004,525.059 Q355.021,531.175 355.021,541.869 L355.021,542.015 Q355.021,548.9 358.353,554.283 Q361.686,559.666 367.618,562.706 Q373.551,565.745 381.388,565.745 z" fill="#FFFFFF"/>
      <path d="M440.128,564.5 L461.515,564.5 L461.515,517.113 Q461.515,512.645 463.236,509.276 Q464.957,505.907 468.033,504.002 Q471.11,502.098 475.138,502.098 Q481.071,502.098 484.44,505.614 Q487.809,509.129 487.809,515.501 L487.809,564.5 L508.39,564.5 L508.39,516.746 Q508.39,512.352 510.074,509.056 Q511.759,505.76 514.799,503.929 Q517.838,502.098 521.866,502.098 Q528.092,502.098 531.388,505.723 Q534.684,509.349 534.684,516.161 L534.684,564.5 L556.071,564.5 L556.071,510.814 Q556.071,502.83 552.848,496.898 Q549.625,490.965 543.839,487.669 Q538.053,484.373 530.363,484.373 Q524.576,484.373 519.706,486.351 Q514.835,488.328 511.283,491.954 Q507.731,495.579 505.973,500.56 L505.533,500.56 Q504.288,495.36 501.249,491.771 Q498.209,488.182 493.815,486.278 Q489.42,484.373 483.927,484.373 Q476.017,484.373 470.194,488.402 Q464.371,492.43 461.954,499.168 L461.515,499.168 L461.515,485.985 L440.128,485.985 z" fill="#FFFFFF"/>
      <path d="M570.06,564.5 L591.446,564.5 L591.446,485.985 L570.06,485.985 z M580.753,475.877 Q585.587,475.877 588.883,472.581 Q592.179,469.285 592.179,464.744 Q592.179,460.13 588.883,456.871 Q585.587,453.612 580.753,453.612 Q575.919,453.612 572.623,456.871 Q569.327,460.13 569.327,464.744 Q569.327,469.285 572.623,472.581 Q575.919,475.877 580.753,475.877 z" fill="#FFFFFF"/>
      <path d="M605.07,564.881 Q606.212,564.881 606.988,564.09 Q607.765,563.299 607.765,562.157 Q607.765,561.014 606.988,560.238 Q606.212,559.461 605.07,559.461 Q603.927,559.461 603.136,560.238 Q602.345,561.014 602.345,562.157 Q602.345,563.299 603.136,564.09 Q603.927,564.881 605.07,564.881 z" fill="#FFFFFF"/>
      <path d="M625.343,565.057 Q628.683,565.057 631.32,563.768 Q633.956,562.479 635.641,560.252 Q637.325,558.026 637.765,555.184 L637.823,554.95 L634.015,554.95 L633.956,555.213 Q633.253,558.055 631.012,559.828 Q628.771,561.6 625.343,561.6 Q622.384,561.6 620.143,560.12 Q617.902,558.641 616.671,555.887 Q615.441,553.133 615.441,549.295 L615.441,549.266 Q615.441,545.487 616.671,542.718 Q617.902,539.95 620.113,538.441 Q622.325,536.932 625.284,536.932 Q628.888,536.932 631.1,538.792 Q633.312,540.653 633.956,543.319 L634.015,543.582 L637.794,543.582 L637.765,543.319 Q637.355,540.682 635.758,538.455 Q634.161,536.229 631.51,534.852 Q628.859,533.475 625.284,533.475 Q621.154,533.475 618.033,535.409 Q614.913,537.342 613.199,540.872 Q611.486,544.403 611.486,549.207 L611.486,549.237 Q611.486,554.071 613.185,557.616 Q614.884,561.161 618.004,563.109 Q621.124,565.057 625.343,565.057 z" fill="#FFFFFF"/>
      <path d="M643.185,564.5 L647.052,564.5 L647.052,522.225 L643.185,522.225 z" fill="#FFFFFF"/>
      <path d="M666.622,565.057 Q670.782,565.057 673.888,563.123 Q676.993,561.19 678.751,557.66 Q680.509,554.129 680.509,549.266 L680.509,549.207 Q680.509,544.344 678.751,540.828 Q676.993,537.313 673.873,535.394 Q670.753,533.475 666.593,533.475 Q662.491,533.475 659.357,535.394 Q656.222,537.313 654.479,540.843 Q652.736,544.373 652.736,549.207 L652.736,549.266 Q652.736,554.1 654.479,557.645 Q656.222,561.19 659.357,563.109 Q662.491,565.028 666.622,565.057 z M666.652,561.6 Q663.634,561.6 661.407,560.135 Q659.181,558.67 657.936,555.887 Q656.691,553.104 656.691,549.266 L656.691,549.207 Q656.691,545.37 657.936,542.616 Q659.181,539.862 661.407,538.397 Q663.634,536.932 666.593,536.932 Q669.611,536.932 671.852,538.382 Q674.093,539.832 675.323,542.586 Q676.554,545.34 676.554,549.207 L676.554,549.266 Q676.554,553.104 675.323,555.887 Q674.093,558.67 671.866,560.135 Q669.64,561.6 666.652,561.6 z" fill="#FFFFFF"/>
      <path d="M696.505,565.028 Q700.226,565.028 702.731,563.402 Q705.236,561.776 706.378,559.286 L706.495,559.286 L706.495,564.5 L710.333,564.5 L710.333,534.032 L706.495,534.032 L706.495,552.078 Q706.495,554.92 705.382,557.059 Q704.269,559.198 702.277,560.399 Q700.284,561.6 697.618,561.6 Q693.751,561.6 691.686,559.373 Q689.62,557.147 689.62,552.899 L689.62,534.032 L685.753,534.032 L685.753,553.543 Q685.753,557.118 687.042,559.696 Q688.331,562.274 690.734,563.651 Q693.136,565.028 696.505,565.028 z" fill="#FFFFFF"/>
      <path d="M728.644,565.057 Q732.277,565.057 734.987,563.182 Q737.696,561.307 739.015,558.143 L739.161,558.143 L739.161,564.5 L742.999,564.5 L742.999,522.225 L739.161,522.225 L739.161,540.418 L739.044,540.418 Q737.755,537.254 734.987,535.365 Q732.218,533.475 728.614,533.475 Q724.806,533.475 721.92,535.438 Q719.034,537.401 717.394,540.931 Q715.753,544.461 715.753,549.237 L715.753,549.266 Q715.753,554.012 717.379,557.572 Q719.005,561.131 721.905,563.094 Q724.806,565.057 728.644,565.057 z M729.376,561.6 Q726.446,561.6 724.264,560.091 Q722.081,558.582 720.895,555.799 Q719.708,553.016 719.708,549.266 L719.708,549.237 Q719.708,545.487 720.895,542.718 Q722.081,539.95 724.264,538.441 Q726.446,536.932 729.376,536.932 Q732.247,536.932 734.445,538.47 Q736.642,540.008 737.902,542.791 Q739.161,545.575 739.161,549.237 L739.161,549.266 Q739.161,552.928 737.916,555.726 Q736.671,558.524 734.459,560.062 Q732.247,561.6 729.376,561.6 z" fill="#FFFFFF"/>
    </g>
    <g id="sTtbjRiTdb">
      <path d="M86.209,311.318 C84.382,311.475 81.807,311.986 81.178,312.301 C80.982,312.418 80.648,312.497 80.432,312.497 C80.058,312.497 79.744,312.615 77.956,313.381 C76.855,313.853 74.418,315.091 73.829,315.464 C73.514,315.661 73.102,315.897 72.944,315.975 C72.158,316.329 69.309,318.668 67.737,320.259 C64.809,323.168 62.47,326.528 61.173,329.692 C58.894,335.234 58.52,337.494 58.304,347.182 C58.206,352.233 57.872,356.634 57.302,360.643 C57.145,361.783 57.027,362.962 57.027,363.296 C57.027,363.611 56.889,364.672 56.732,365.655 C56.555,366.617 56.28,368.268 56.123,369.29 C55.946,370.312 55.69,371.648 55.553,372.238 C55.415,372.827 55.14,374.026 54.963,374.891 C54.767,375.755 54.492,376.895 54.354,377.446 C52.762,383.086 52.841,382.909 52.055,383.282 C51.662,383.479 51.013,383.714 50.601,383.813 C49.795,384.009 48.812,384.343 47.889,384.736 C47.574,384.874 46.808,385.169 46.218,385.424 C44.509,386.092 40.794,388.077 38.947,389.295 C35.862,391.3 34.152,392.715 31.165,395.702 C28.178,398.709 26.783,400.399 24.7,403.562 C22.479,406.962 20.553,410.912 19.571,414.096 C19.394,414.685 19.119,415.471 18.981,415.825 C18.824,416.179 18.706,416.611 18.706,416.788 C18.706,416.965 18.588,417.554 18.431,418.105 C17.959,419.755 17.566,421.917 17.291,424.315 C16.918,427.616 16.918,596.482 17.291,599.705 C17.743,603.576 18.706,607.821 19.61,609.983 C19.767,610.337 19.885,610.789 19.885,611.005 C19.885,611.201 19.964,611.417 20.062,611.476 C20.16,611.535 20.298,611.81 20.357,612.105 C20.475,612.577 21.398,614.68 21.929,615.721 C22.715,617.215 23.54,618.669 24.032,619.416 C24.346,619.887 24.602,620.3 24.602,620.359 C24.602,620.418 25.505,621.676 26.606,623.149 C30.242,628.023 35.999,633.211 40.716,635.844 C41.089,636.061 41.757,636.434 42.19,636.689 C42.622,636.925 43.153,637.22 43.369,637.318 C43.585,637.417 44.43,637.81 45.255,638.183 C46.827,638.93 47.672,639.244 49.756,639.932 C51.917,640.639 52.743,640.973 52.802,641.17 C52.821,641.268 53.018,641.897 53.195,642.546 C54,645.277 54.216,646.063 54.963,649.129 C56.752,656.38 58.107,667.719 58.304,676.838 C58.501,685.386 58.894,688.432 60.308,692.264 C60.839,693.699 62.195,696.587 62.824,697.629 C65.89,702.719 71.038,707.415 76.187,709.833 C76.953,710.186 77.72,710.56 77.936,710.678 C78.702,711.071 81.552,711.896 84.048,712.427 C85.757,712.78 87.329,712.8 126.829,712.8 C163.342,712.8 168.019,712.761 169.375,712.486 C172.598,711.837 174.956,711.051 177.687,709.695 C182.109,707.514 185.155,705.057 188.437,701.009 C190.363,698.612 191.62,696.489 192.819,693.541 C194.391,689.631 194.942,687.056 195.079,682.831 C195.413,672.554 195.747,667.778 196.455,662.099 C196.612,660.861 196.789,659.525 196.828,659.151 C197.025,657.206 198.145,651.212 198.833,648.441 C199.442,646.004 200.13,643.548 200.66,641.995 C200.994,640.973 201.407,640.639 202.763,640.305 C203.942,640.03 205.77,639.362 207.558,638.576 C209.641,637.652 213.218,635.785 213.827,635.314 C213.964,635.196 214.239,634.999 214.436,634.881 C217.619,633.093 222.965,628.318 225.912,624.663 C227.072,623.228 229.214,620.084 230.491,617.981 C230.766,617.529 232.633,613.756 233.007,612.872 C233.675,611.339 234.657,608.352 235.05,606.681 C235.149,606.308 235.306,605.601 235.424,605.109 C235.895,603.144 236.249,600.963 236.446,598.624 C236.583,596.974 236.642,578.914 236.642,543.875 C236.642,503.471 236.701,491.543 236.878,491.366 C237.016,491.228 237.35,491.13 237.644,491.13 C239.118,491.13 241.182,489.538 242.204,487.632 L242.734,486.61 L242.734,470.594 L242.734,454.558 L242.243,453.595 C241.3,451.748 239.452,450.314 237.507,449.901 L236.74,449.744 L236.623,437.579 C236.505,425.946 236.367,423.077 235.876,420.876 C235.758,420.325 235.502,419.264 235.345,418.517 C234.834,416.238 233.694,412.72 232.751,410.539 C228.762,401.283 220.823,392.518 212.038,387.684 C209.228,386.132 206.281,384.815 204.021,384.107 C203.431,383.931 202.625,383.675 202.252,383.538 C201.879,383.38 201.427,383.243 201.269,383.184 C200.994,383.105 200.68,382.28 199.972,379.902 C199.737,379.077 199.56,378.369 198.852,375.48 C198.695,374.832 198.44,373.849 198.322,373.319 C198.184,372.768 198.007,371.943 197.929,371.452 C197.85,370.961 197.693,370.037 197.575,369.388 C196.985,366.303 196.749,364.829 196.749,364.279 C196.749,363.945 196.632,362.766 196.455,361.626 C195.787,356.811 195.394,351.211 195.079,341.188 C194.961,337.946 194.804,336.767 194.077,334.212 C192.524,328.67 190.068,324.445 186.079,320.397 C184.487,318.766 181.834,316.663 179.947,315.523 C178.768,314.796 175.251,313.087 174.956,313.087 C174.838,313.087 174.465,312.969 174.111,312.811 C173.757,312.654 172.932,312.399 172.283,312.222 C171.635,312.065 170.534,311.77 169.827,311.573 C168.628,311.259 166.034,311.239 128.264,311.2 C106.116,311.2 87.192,311.239 86.209,311.318 z M165.995,323.698 C168.274,323.895 169.178,324.111 171.202,324.936 C176.017,326.921 179.829,330.812 181.52,335.489 C182.384,337.887 182.561,339.086 182.679,343.252 C183.151,359.17 184.389,369.939 186.904,379.902 C187.042,380.393 187.16,380.924 187.179,381.081 C187.218,381.337 180.36,381.376 126.652,381.435 C80.176,381.454 66.066,381.415 66.066,381.238 C66.066,381.12 66.145,380.747 66.243,380.413 C66.735,378.801 67.874,373.83 68.503,370.567 C69.053,367.62 69.997,360.997 69.997,360.054 C69.997,359.68 70.134,357.951 70.291,356.222 C70.449,354.492 70.724,349.796 70.881,345.806 C71.176,338.417 71.235,337.907 72.119,335.588 C73.396,332.227 75.617,329.299 78.545,327.157 C81.414,325.054 84.303,323.954 87.585,323.698 C90.218,323.502 163.715,323.502 165.995,323.698 z M193.605,394.228 C196.121,394.641 199.402,395.446 200.778,395.957 C202.331,396.547 205.298,397.922 206.87,398.807 C208.226,399.573 212.117,402.58 213.453,403.897 C215.124,405.528 218.563,409.674 218.563,410.048 C218.563,410.106 218.799,410.519 219.113,410.991 C220.017,412.425 220.135,412.602 220.312,413.015 C220.41,413.231 220.685,413.84 220.941,414.391 C222.002,416.749 222.69,418.891 223.613,422.742 C223.947,424.157 223.967,428.245 223.967,512.059 C223.967,596.679 223.947,599.961 223.613,601.375 C222.67,605.227 222.69,605.129 221.786,607.507 C221.078,609.393 220.823,609.983 220.174,611.201 C217.561,616.153 212.982,621.243 208.54,624.132 C206.968,625.174 206.87,625.232 204.61,626.333 C203.47,626.883 202.389,627.433 202.213,627.512 C201.8,627.748 199.953,628.337 198.42,628.75 C195.846,629.438 194.588,629.674 192.406,629.87 C190.913,630.008 168.549,630.067 126.672,630.067 C74.576,630.047 62.765,630.008 60.662,629.792 C58.107,629.517 56.85,629.281 55.356,628.77 C54.904,628.613 54.413,628.495 54.236,628.495 C54.04,628.495 53.607,628.377 53.254,628.22 C52.9,628.062 52.114,627.748 51.524,627.512 C44.784,624.839 39.163,620.103 34.702,613.363 C34.074,612.4 32.482,609.197 32.01,607.959 C31.853,607.526 31.597,606.819 31.421,606.387 C30.713,604.421 30.045,601.493 29.711,598.821 C29.436,596.482 29.436,427.42 29.711,425.101 C30.025,422.507 30.772,419.362 31.401,417.869 C31.558,417.515 31.676,417.063 31.676,416.886 C31.676,416.69 31.814,416.356 31.971,416.14 C32.128,415.943 32.266,415.668 32.266,415.53 C32.266,415.294 33.445,412.779 33.897,412.032 C35.98,408.613 37.237,406.962 39.714,404.388 C42.209,401.814 46.002,399.062 48.969,397.647 C51.406,396.508 52.074,396.213 52.271,396.213 C52.389,396.213 52.782,396.095 53.136,395.938 C53.745,395.682 54.845,395.348 56.83,394.818 C57.754,394.582 59.581,394.326 62.136,394.051 C62.942,393.973 92.537,393.933 127.871,393.933 C179.043,393.973 192.426,394.012 193.605,394.228 z M187.395,643.567 C187.336,644.098 187.14,644.805 187.002,645.179 C186.845,645.533 186.727,646.024 186.727,646.24 C186.727,646.456 186.609,647.085 186.452,647.635 C186.02,649.168 185.135,653.511 184.683,656.4 C183.603,663.258 182.974,670.903 182.679,680.768 C182.561,684.777 182.365,686.074 181.559,688.452 C179.771,693.659 174.229,698.67 168.942,699.83 C168.51,699.928 167.842,700.105 167.469,700.223 C166.997,700.361 153.929,700.419 126.79,700.419 C88.135,700.419 86.76,700.4 85.404,700.046 C82.2,699.181 79.862,698.042 77.661,696.234 C76.403,695.212 73.868,692.303 73.593,691.576 C73.534,691.419 73.377,691.144 73.239,690.987 C73.121,690.83 72.866,690.299 72.669,689.808 C72.453,689.316 72.178,688.648 72.04,688.294 C71.883,687.96 71.765,687.548 71.765,687.391 C71.765,687.233 71.628,686.781 71.471,686.388 C71.235,685.818 71.097,683.971 70.881,678.253 C70.606,670.903 70.193,664.732 69.781,661.509 C69.663,660.586 69.486,659.171 69.407,658.365 C69.329,657.559 69.171,656.361 69.053,655.712 C68.936,655.064 68.7,653.649 68.523,652.568 C68.326,651.487 68.071,650.072 67.933,649.424 C67.796,648.775 67.521,647.537 67.344,646.672 C67.167,645.808 66.892,644.648 66.735,644.098 C66.577,643.548 66.459,642.998 66.459,642.88 C66.459,642.703 81.139,642.644 127.006,642.644 L187.533,642.644 L187.395,643.567 z" fill="#FFFFFF"/>
      <path d="M63.02,402.226 C57.714,402.855 54.826,403.759 50.974,405.98 C47.24,408.141 43.801,411.58 41.482,415.471 C41.011,416.277 40.441,417.338 40.244,417.83 C40.048,418.321 39.792,418.891 39.674,419.107 C39.576,419.323 39.399,419.755 39.321,420.089 C39.242,420.404 39.085,420.935 38.967,421.269 C38.593,422.389 38.181,424.216 37.984,425.788 C37.67,428.009 37.689,595.853 37.984,598.212 C38.377,601.297 39.163,603.891 40.657,606.976 C41.502,608.706 41.522,608.745 43.192,611.005 C45.177,613.658 48.144,616.37 50.856,618.02 C51.839,618.61 54.197,619.691 56.142,620.438 C57.125,620.811 60.033,621.4 61.782,621.597 C63.079,621.754 83.262,621.813 126.927,621.813 C181.028,621.813 190.5,621.754 192.426,621.518 C194.843,621.224 196.062,620.948 197.103,620.516 C197.457,620.359 197.889,620.241 198.047,620.241 C198.223,620.241 198.597,620.123 198.872,619.966 C199.167,619.828 200.031,619.416 200.778,619.042 C203.49,617.745 205.75,616.153 207.872,614.07 C209.228,612.714 211.233,610.16 212.215,608.548 C212.549,607.978 213.846,605.325 213.846,605.188 C213.846,605.129 213.964,604.795 214.122,604.461 C214.259,604.107 214.515,603.341 214.691,602.751 C214.868,602.161 215.163,601.14 215.36,600.491 C215.694,599.371 215.713,595.323 215.772,513.356 C215.792,457.369 215.753,426.81 215.615,425.71 C215.261,422.664 214.573,420.325 213.1,417.24 C211.881,414.666 210.486,412.701 208.167,410.303 C207.067,409.163 204.374,407.002 202.94,406.098 C201.898,405.449 198.793,404.034 197.595,403.68 C196.867,403.445 195.944,403.169 195.57,403.052 C192.957,402.226 195.138,402.246 127.674,402.207 C92.439,402.187 63.354,402.187 63.02,402.226 z M119.813,454.362 C121.562,455.148 122.29,456.582 123.056,460.768 C123.135,461.201 123.311,461.987 123.449,462.537 C123.567,463.068 123.803,464.011 123.94,464.6 C124.098,465.19 124.353,466.29 124.53,467.057 C124.844,468.413 125.139,469.612 125.611,471.577 C125.748,472.107 125.925,472.913 126.004,473.345 C126.082,473.778 126.259,474.564 126.397,475.114 C126.515,475.645 126.751,476.588 126.888,477.177 C127.026,477.767 127.261,478.691 127.379,479.241 C127.517,479.771 127.694,480.577 127.772,481.009 C127.949,481.933 128.283,483.368 128.676,484.763 C128.834,485.313 128.951,485.942 128.951,486.158 C128.951,486.374 129.069,486.925 129.227,487.416 C129.364,487.887 129.639,488.949 129.816,489.754 C130.013,490.56 130.268,491.72 130.425,492.309 C130.563,492.899 130.799,493.822 130.917,494.373 C131.054,494.903 131.231,495.709 131.31,496.141 C131.388,496.573 131.565,497.36 131.703,497.91 C131.821,498.44 132.056,499.384 132.194,499.973 C132.332,500.563 132.567,501.486 132.685,502.037 C132.823,502.567 133,503.373 133.078,503.805 C133.157,504.238 133.334,505.024 133.471,505.574 C133.589,506.105 133.825,507.048 133.963,507.637 C134.1,508.227 134.336,509.151 134.454,509.701 C134.592,510.231 134.768,510.998 134.847,511.371 C135.181,512.806 135.594,514.653 135.83,515.596 C135.967,516.127 136.183,517.07 136.321,517.66 C136.458,518.249 136.694,519.173 136.812,519.723 C136.95,520.254 137.127,521.059 137.205,521.492 C137.284,521.924 137.461,522.71 137.598,523.26 C137.716,523.791 137.952,524.734 138.089,525.324 C138.227,525.913 138.463,526.837 138.581,527.387 C138.718,527.918 138.895,528.724 138.974,529.156 C139.111,529.922 139.328,530.807 139.858,532.89 C139.996,533.42 140.271,534.58 140.448,535.444 C140.644,536.309 140.88,537.272 140.978,537.606 C141.077,537.92 141.234,538.589 141.312,539.08 C141.411,539.571 141.587,540.397 141.725,540.947 C142.256,543.167 142.491,544.17 142.826,545.663 C143.179,547.275 143.415,547.805 143.572,547.314 C143.671,546.96 144.181,544.936 144.575,543.403 C144.732,542.755 145.007,541.674 145.184,540.986 C145.341,540.318 145.616,539.257 145.773,538.628 C145.93,538.019 146.186,536.977 146.343,536.329 C146.5,535.68 146.775,534.619 146.933,533.97 C147.09,533.322 147.365,532.261 147.522,531.612 C147.679,530.964 147.935,529.922 148.092,529.293 C148.249,528.684 148.505,527.643 148.662,526.994 C148.839,526.346 149.114,525.265 149.271,524.577 C149.448,523.909 149.723,522.828 149.88,522.18 C150.038,521.531 150.313,520.47 150.47,519.821 C150.627,519.173 150.902,518.112 151.06,517.463 C151.217,516.815 151.492,515.753 151.649,515.105 C151.806,514.456 152.081,513.395 152.239,512.747 C152.396,512.098 152.671,511.037 152.828,510.389 C152.985,509.74 153.261,508.679 153.418,508.03 C153.575,507.382 153.83,506.34 153.988,505.711 C154.577,503.353 154.931,501.997 155.206,501.034 C155.363,500.484 155.481,499.875 155.481,499.678 C155.481,499.482 155.678,498.794 155.913,498.165 C156.405,496.809 157.643,495.571 158.842,495.257 C160.237,494.883 162.123,495.453 163.165,496.573 C163.46,496.868 164.383,498.539 165.209,500.268 C170.023,510.231 170.122,510.408 171.654,511.135 C172.44,511.509 172.971,511.528 179.358,511.607 L186.236,511.666 L187.101,512.255 C188.24,513.022 188.987,514.437 188.967,515.793 C188.948,517.208 188.103,518.898 187.061,519.586 L186.256,520.116 L177.216,520.175 C172.224,520.214 167.783,520.175 167.311,520.116 C165.877,519.9 165.15,519.055 163.322,515.38 C162.438,513.611 161.593,512.059 161.436,511.921 C161.082,511.646 160.787,512 160.787,512.727 C160.787,512.983 160.669,513.651 160.512,514.201 C160.355,514.751 160.099,515.734 159.922,516.382 C159.765,517.031 159.49,518.131 159.313,518.839 C158.822,520.745 158.429,522.337 158.134,523.555 C157.997,524.145 157.78,525.029 157.643,525.52 C157.525,526.012 157.348,526.758 157.269,527.191 C157.191,527.623 157.014,528.37 156.876,528.861 C156.739,529.352 156.503,530.276 156.326,530.924 C156.169,531.573 155.913,532.634 155.737,533.283 C155.579,533.931 155.344,534.953 155.186,535.543 C155.049,536.132 154.833,537.016 154.695,537.508 C154.577,537.999 154.4,538.746 154.322,539.178 C154.243,539.61 154.066,540.357 153.929,540.849 C153.791,541.34 153.555,542.244 153.398,542.853 C153.241,543.482 152.985,544.543 152.809,545.211 C152.651,545.899 152.376,546.98 152.219,547.628 C152.042,548.277 151.787,549.259 151.629,549.81 C151.472,550.36 151.354,550.969 151.354,551.166 C151.354,551.362 151.236,551.971 151.079,552.522 C150.804,553.484 150.45,554.84 149.861,557.199 C149.704,557.828 149.468,558.849 149.311,559.459 C149.153,560.087 148.918,560.991 148.78,561.483 C148.466,562.662 148.033,564.509 147.817,565.61 C147.562,566.985 147.09,567.909 146.245,568.734 C144.496,570.424 141.98,570.405 140.31,568.675 C139.603,567.948 139.347,567.221 138.679,564.234 C138.502,563.428 138.247,562.269 138.089,561.679 C137.854,560.657 137.657,559.793 136.891,556.314 C136.734,555.548 136.458,554.447 136.301,553.897 C136.144,553.347 136.026,552.738 136.026,552.541 C136.026,552.345 135.908,551.736 135.751,551.185 C135.358,549.79 135.024,548.355 134.847,547.432 C134.768,547 134.592,546.194 134.454,545.663 C134.336,545.113 134.1,544.189 133.963,543.6 C133.825,543.01 133.589,542.067 133.471,541.536 C133.334,540.986 133.157,540.2 133.078,539.768 C133,539.335 132.823,538.53 132.685,537.999 C132.233,536.152 131.939,534.855 131.604,533.381 C131.428,532.575 131.172,531.416 131.015,530.826 C130.877,530.237 130.622,529.117 130.465,528.37 C129.62,524.498 129.345,523.359 128.755,520.902 C128.617,520.352 128.441,519.566 128.362,519.134 C128.283,518.701 128.106,517.896 127.969,517.365 C127.851,516.815 127.615,515.891 127.478,515.301 C127.34,514.712 127.104,513.769 126.986,513.238 C126.849,512.688 126.672,511.902 126.593,511.469 C126.515,511.037 126.338,510.231 126.2,509.701 C126.082,509.151 125.847,508.227 125.709,507.637 C125.571,507.048 125.336,506.105 125.218,505.574 C125.08,505.024 124.903,504.238 124.825,503.805 C124.726,503.373 124.53,502.449 124.373,501.742 C124.196,501.034 123.881,499.62 123.646,498.598 C123.41,497.576 123.095,496.161 122.918,495.453 C122.761,494.746 122.565,493.822 122.466,493.39 C122.388,492.958 122.211,492.152 122.073,491.621 C121.956,491.071 121.72,490.147 121.582,489.558 C121.445,488.968 121.209,488.025 121.091,487.494 C120.953,486.944 120.776,486.119 120.678,485.628 C120.383,484.075 119.971,482.778 119.794,482.778 C119.696,482.778 119.558,483.348 119.499,484.055 C119.42,484.763 119.263,486.119 119.145,487.101 C119.008,488.064 118.792,489.833 118.634,491.032 C118.477,492.211 118.261,493.94 118.143,494.864 C118.006,495.787 117.848,497.242 117.75,498.106 C117.671,498.971 117.495,500.425 117.377,501.349 C117.259,502.272 117.043,503.727 116.925,504.591 C116.807,505.456 116.65,506.871 116.571,507.736 C116.473,508.6 116.316,510.055 116.178,510.978 C116.06,511.902 115.844,513.67 115.687,514.908 C114.252,526.542 114.35,526.071 113.23,527.328 C111.756,529.018 109.516,529.097 107.394,527.584 C106.745,527.112 105.173,525.108 104.819,524.282 C104.78,524.204 104.092,523.162 103.287,521.963 C102.481,520.765 101.832,519.743 101.832,519.703 C101.832,519.664 101.439,519.055 100.948,518.328 C100.457,517.62 100.064,517.011 100.064,516.992 C100.064,516.952 99.14,515.537 98,513.828 C96.86,512.138 95.937,510.703 95.937,510.683 C95.937,510.526 94.502,508.502 94.306,508.384 C93.991,508.188 93.854,508.325 93.382,509.367 C93.127,509.878 92.341,511.528 91.613,513.042 C90.886,514.555 90.002,516.382 89.668,517.109 C88.941,518.682 88.096,519.703 87.074,520.234 C86.366,520.588 85.836,520.607 76.796,520.607 L67.285,520.607 L66.44,519.959 C64.258,518.308 64.062,515.321 66.007,513.494 C67.147,512.432 67.815,512.354 75.067,512.354 C82.397,512.354 81.906,512.432 83.419,510.998 C83.812,510.624 84.146,510.231 84.146,510.113 C84.146,510.015 84.716,508.777 85.404,507.362 C86.091,505.947 87.29,503.452 88.076,501.84 C88.843,500.209 89.629,498.598 89.806,498.224 C90.218,497.419 91.672,496.102 92.576,495.728 C93.716,495.257 95.013,495.453 96.212,496.318 C96.664,496.652 97.882,498.264 98.295,499.089 C98.354,499.207 99.533,501.015 100.928,503.117 C102.324,505.22 104.23,508.109 105.153,509.544 C107.099,512.531 107.453,512.747 107.61,511.017 C107.669,510.408 107.865,509.013 108.023,507.932 C108.18,506.851 108.317,505.692 108.317,505.377 C108.317,505.043 108.455,503.904 108.612,502.823 C108.907,500.818 109.241,498.283 109.791,493.921 C109.948,492.604 110.224,490.442 110.381,489.106 C110.558,487.789 110.813,485.706 110.97,484.488 C111.127,483.289 111.403,481.285 111.56,480.066 C111.717,478.867 111.973,476.765 112.149,475.409 C112.582,471.989 113.368,465.799 113.82,462.439 C113.957,461.515 114.115,460.061 114.213,459.196 C114.39,457.447 114.625,456.779 115.451,455.698 C116.119,454.853 117.573,454.008 118.438,454.008 C118.772,454.008 119.381,454.165 119.813,454.362 z" fill="#FFFFFF"/>
    </g>
  </g>
</svg>
